<svg xmlns="http://www.w3.org/2000/svg" version="1.0" width="20" height="20" viewBox="0 0 980.000000 560.000000" preserveAspectRatio="xMidYMid meet">

<g transform="translate(0.000000,560.000000) scale(0.100000,-0.100000)" fill="#000000" stroke="none">
<path d="M4389 5590 c-59 -5 -171 -19 -250 -30 -1086 -157 -2098 -649 -3099 -1506 -200 -172 -801 -780 -954 -967 -70 -85 -102 -239 -76 -369 15 -79 29 -106 98 -193 82 -103 628 -645 847 -839 526 -468 1036 -821 1576 -1092 656 -328 1256 -504 1969 -576 187 -19 697 -16 895 6 825 89 1581 348 2360 809 261 155 663 437 885 621 430 355 1033 995 1129 1196 23 50 26 66 26 175 0 116 -1 123 -32 186 -89 180 -576 680 -1023 1050 -820 679 -1714 1147 -2635 1380 -278 71 -570 121 -800 139 -183 14 -789 21 -916 10z m1051 -544 c580 -88 1103 -255 1650 -527 276 -138 447 -236 700 -404 323 -214 630 -454 929 -729 186 -170 495 -485 516 -525 14 -29 14 -34 -4 -70 -69 -134 -452 -531 -796 -826 -781 -668 -1602 -1106 -2475 -1318 -379 -93 -551 -110 -1080 -111 -364 -1 -407 1 -550 22 -779 116 -1472 390 -2195 867 -255 168 -587 422 -805 614 -285 251 -790 750 -790 780 0 30 558 589 843 845 209 188 560 450 835 625 738 470 1523 739 2287 785 33 2 218 2 410 1 319 -3 365 -5 525 -29z"></path>
<path d="M4655 4440 c-99 -13 -294 -71 -411 -122 -497 -220 -849 -656 -965 -1198 -20 -90 -23 -135 -23 -315 0 -180 3 -225 23 -315 33 -154 73 -269 146 -415 86 -172 175 -295 315 -435 220 -219 448 -354 715 -423 322 -83 698 -72 991 29 120 41 301 135 395 206 102 76 309 282 401 397 118 148 226 392 270 613 19 96 23 145 23 333 0 231 -7 295 -51 465 -146 562 -701 1070 -1274 1165 -112 19 -454 28 -555 15z m455 -840 c221 -63 436 -243 531 -445 50 -106 68 -180 75 -300 8 -122 -6 -215 -47 -330 -82 -226 -277 -415 -511 -495 -309 -106 -627 -27 -854 213 -150 157 -224 344 -225 565 0 399 291 738 699 812 75 14 248 3 332 -20z"></path>
</g>
</svg>