<?xml version="1.0" standalone="no"?>
<!DOCTYPE svg PUBLIC "-//W3C//DTD SVG 20010904//EN"
 "http://www.w3.org/TR/2001/REC-SVG-20010904/DTD/svg10.dtd">
<svg version="1.0" xmlns="http://www.w3.org/2000/svg"
 width="96.000000pt" height="96.000000pt" viewBox="0 0 96.000000 96.000000"
 preserveAspectRatio="xMidYMid meet">

<g transform="translate(0.000000,96.000000) scale(0.100000,-0.100000)"
fill="#000000" stroke="none">
<path d="M352 865 c-109 -58 -239 -142 -261 -168 -15 -19 -7 -37 18 -37 10 0
21 -9 24 -20 3 -11 12 -20 21 -20 14 0 16 -25 16 -215 0 -165 -3 -215 -12
-215 -7 0 -26 -16 -41 -35 -31 -39 -30 -68 5 -86 22 -12 703 -17 714 -6 3 3 8
23 11 45 4 33 2 41 -13 46 -36 11 -42 53 -42 253 1 151 4 193 15 197 7 3 13
14 13 25 0 13 8 21 23 23 14 2 23 11 25 25 2 17 -7 28 -40 49 -24 15 -79 51
-123 80 -99 65 -197 114 -227 114 -13 0 -69 -25 -126 -55z m196 11 c26 -13 90
-53 144 -88 53 -34 110 -71 127 -80 17 -9 31 -21 31 -26 0 -8 -712 -6 -743 1
-28 7 336 217 375 217 10 0 40 -11 66 -24z m-268 -226 c0 -6 -28 -10 -65 -10
-37 0 -65 4 -65 10 0 6 28 10 65 10 37 0 65 -4 65 -10z m380 -15 c5 -14 14
-25 20 -25 6 0 10 -70 10 -200 0 -173 -2 -200 -15 -200 -9 0 -20 -11 -25 -25
l-10 -25 -157 0 c-158 0 -158 0 -183 27 -25 26 -25 29 -29 226 -3 176 -1 201
13 209 9 5 16 16 16 23 0 13 29 15 175 15 l175 0 10 -25z m140 5 c0 -6 -27
-10 -60 -10 -33 0 -60 4 -60 10 0 6 27 10 60 10 33 0 60 -4 60 -10z m-550
-230 l0 -210 -30 0 -30 0 0 204 c0 186 2 205 18 209 43 11 42 16 42 -203z
m504 194 c14 -5 16 -32 16 -200 l0 -194 -30 0 -30 0 0 200 c0 210 0 211 44
194z m34 -431 c3 -10 -13 -13 -57 -13 -48 0 -61 3 -61 15 0 13 11 15 57 13 34
-2 58 -8 61 -15z m-503 -3 c4 -6 -20 -10 -67 -9 -52 1 -66 3 -48 9 36 12 108
12 115 0z m539 -38 c3 -5 3 -18 0 -29 -6 -21 -9 -21 -346 -20 -282 1 -343 3
-355 15 -16 16 -9 28 22 35 35 8 674 7 679 -1z"/>
<path d="M425 826 c-62 -20 -175 -82 -175 -97 0 -2 80 -4 178 -4 97 0 198 -2
224 -5 26 -2 48 0 49 5 2 13 -78 59 -154 90 -68 28 -68 28 -122 11z m140 -45
l60 -28 -152 1 c-83 1 -150 2 -148 4 12 13 126 51 150 51 17 0 57 -13 90 -28z"/>
<path d="M447 644 c-4 -4 -7 -14 -7 -23 0 -9 -18 -23 -40 -33 -91 -38 -87
-176 6 -210 25 -9 34 -18 34 -35 0 -24 -14 -31 -25 -13 -11 18 -40 9 -63 -21
-30 -37 -25 -51 31 -78 25 -12 47 -31 50 -41 8 -31 74 -28 87 4 4 13 19 26 32
29 13 4 37 20 53 37 24 25 30 40 30 75 0 50 -18 74 -75 100 -30 14 -40 24 -40
42 0 27 1 27 34 11 22 -9 29 -8 46 7 11 10 20 29 20 42 0 19 -10 28 -45 44
-25 11 -45 26 -45 34 0 8 -3 16 -7 18 -17 10 -69 17 -76 11z m53 -42 c0 -13
12 -22 39 -30 47 -15 69 -38 53 -54 -9 -9 -21 -9 -48 1 -43 16 -54 6 -54 -47
0 -30 5 -34 54 -56 56 -25 76 -55 68 -103 -4 -27 -56 -73 -83 -73 -11 0 -23
-8 -26 -17 -8 -21 -23 -33 -42 -33 -7 0 -11 6 -8 14 7 18 -9 32 -45 41 -42 11
-54 31 -33 55 16 17 19 18 41 4 32 -22 44 -10 44 41 0 38 -3 44 -27 50 -48 11
-73 43 -73 91 0 35 5 47 31 68 17 14 39 26 50 26 12 0 19 7 19 20 0 13 7 20
20 20 13 0 20 -7 20 -18z"/>
<path d="M416 514 c-11 -29 -6 -53 13 -63 25 -14 31 -5 31 41 0 31 -4 38 -19
38 -10 0 -22 -7 -25 -16z m21 -36 c-3 -8 -6 -5 -6 6 -1 11 2 17 5 13 3 -3 4
-12 1 -19z"/>
<path d="M490 335 c0 -37 3 -45 18 -45 20 0 52 29 52 47 0 15 -34 43 -53 43
-13 0 -17 -10 -17 -45z m37 -7 c-3 -8 -6 -5 -6 6 -1 11 2 17 5 13 3 -3 4 -12
1 -19z"/>
</g>
</svg>
